<?xml version="1.0" encoding="utf-8" standalone="no"?>
<!DOCTYPE svg PUBLIC "-//W3C//DTD SVG 1.1//EN"
  "http://www.w3.org/Graphics/SVG/1.1/DTD/svg11.dtd">
<svg xmlns:xlink="http://www.w3.org/1999/xlink" width="1944pt" height="432pt" viewBox="0 0 1944 432" xmlns="http://www.w3.org/2000/svg" version="1.1">
 <metadata>
  <rdf:RDF xmlns:dc="http://purl.org/dc/elements/1.1/" xmlns:cc="http://creativecommons.org/ns#" xmlns:rdf="http://www.w3.org/1999/02/22-rdf-syntax-ns#">
   <cc:Work>
    <dc:type rdf:resource="http://purl.org/dc/dcmitype/StillImage"/>
    <dc:date>2023-04-23T16:22:06.021756</dc:date>
    <dc:format>image/svg+xml</dc:format>
    <dc:creator>
     <cc:Agent>
      <dc:title>Matplotlib v3.5.2, https://matplotlib.org/</dc:title>
     </cc:Agent>
    </dc:creator>
   </cc:Work>
  </rdf:RDF>
 </metadata>
 <defs>
  <style type="text/css">*{stroke-linejoin: round; stroke-linecap: butt}</style>
 </defs>
 <g id="figure_1">
  <g id="patch_1">
   <path d="M 0 432 
L 1944 432 
L 1944 0 
L 0 0 
z
" style="fill: #ffffff"/>
  </g>
  <g id="axes_1">
   <g id="patch_2">
    <path d="M 243 384.48 
L 1749.6 384.48 
L 1749.6 51.84 
L 243 51.84 
z
" style="fill: #eaeaf2"/>
   </g>
   <g id="matplotlib.axis_1">
    <g id="xtick_1">
     <g id="line2d_1">
      <path d="M 277.95925 384.48 
L 277.95925 51.84 
" clip-path="url(#pfc08d335e6)" style="fill: none; stroke: #ffffff; stroke-width: 0.8; stroke-linecap: round"/>
     </g>
     <g id="text_1">
      <!-- 2021-09 -->
      <g style="fill: #262626" transform="translate(241.263937 405.795625)scale(0.2 -0.2)">
       <defs>
        <path id="ArialMT-32" d="M 3222 541 
L 3222 0 
L 194 0 
Q 188 203 259 391 
Q 375 700 629 1000 
Q 884 1300 1366 1694 
Q 2113 2306 2375 2664 
Q 2638 3022 2638 3341 
Q 2638 3675 2398 3904 
Q 2159 4134 1775 4134 
Q 1369 4134 1125 3890 
Q 881 3647 878 3216 
L 300 3275 
Q 359 3922 746 4261 
Q 1134 4600 1788 4600 
Q 2447 4600 2831 4234 
Q 3216 3869 3216 3328 
Q 3216 3053 3103 2787 
Q 2991 2522 2730 2228 
Q 2469 1934 1863 1422 
Q 1356 997 1212 845 
Q 1069 694 975 541 
L 3222 541 
z
" transform="scale(0.015625)"/>
        <path id="ArialMT-30" d="M 266 2259 
Q 266 3072 433 3567 
Q 600 4063 929 4331 
Q 1259 4600 1759 4600 
Q 2128 4600 2406 4451 
Q 2684 4303 2865 4023 
Q 3047 3744 3150 3342 
Q 3253 2941 3253 2259 
Q 3253 1453 3087 958 
Q 2922 463 2592 192 
Q 2263 -78 1759 -78 
Q 1097 -78 719 397 
Q 266 969 266 2259 
z
M 844 2259 
Q 844 1131 1108 757 
Q 1372 384 1759 384 
Q 2147 384 2411 759 
Q 2675 1134 2675 2259 
Q 2675 3391 2411 3762 
Q 2147 4134 1753 4134 
Q 1366 4134 1134 3806 
Q 844 3388 844 2259 
z
" transform="scale(0.015625)"/>
        <path id="ArialMT-31" d="M 2384 0 
L 1822 0 
L 1822 3584 
Q 1619 3391 1289 3197 
Q 959 3003 697 2906 
L 697 3450 
Q 1169 3672 1522 3987 
Q 1875 4303 2022 4600 
L 2384 4600 
L 2384 0 
z
" transform="scale(0.015625)"/>
        <path id="ArialMT-2d" d="M 203 1375 
L 203 1941 
L 1931 1941 
L 1931 1375 
L 203 1375 
z
" transform="scale(0.015625)"/>
        <path id="ArialMT-39" d="M 350 1059 
L 891 1109 
Q 959 728 1153 556 
Q 1347 384 1650 384 
Q 1909 384 2104 503 
Q 2300 622 2425 820 
Q 2550 1019 2634 1356 
Q 2719 1694 2719 2044 
Q 2719 2081 2716 2156 
Q 2547 1888 2255 1720 
Q 1963 1553 1622 1553 
Q 1053 1553 659 1965 
Q 266 2378 266 3053 
Q 266 3750 677 4175 
Q 1088 4600 1706 4600 
Q 2153 4600 2523 4359 
Q 2894 4119 3086 3673 
Q 3278 3228 3278 2384 
Q 3278 1506 3087 986 
Q 2897 466 2520 194 
Q 2144 -78 1638 -78 
Q 1100 -78 759 220 
Q 419 519 350 1059 
z
M 2653 3081 
Q 2653 3566 2395 3850 
Q 2138 4134 1775 4134 
Q 1400 4134 1122 3828 
Q 844 3522 844 3034 
Q 844 2597 1108 2323 
Q 1372 2050 1759 2050 
Q 2150 2050 2401 2323 
Q 2653 2597 2653 3081 
z
" transform="scale(0.015625)"/>
       </defs>
       <use xlink:href="#ArialMT-32"/>
       <use xlink:href="#ArialMT-30" x="55.615234"/>
       <use xlink:href="#ArialMT-32" x="111.230469"/>
       <use xlink:href="#ArialMT-31" x="166.845703"/>
       <use xlink:href="#ArialMT-2d" x="222.460938"/>
       <use xlink:href="#ArialMT-30" x="255.761719"/>
       <use xlink:href="#ArialMT-39" x="311.376953"/>
      </g>
     </g>
    </g>
    <g id="xtick_2">
     <g id="line2d_2">
      <path d="M 424.021869 384.48 
L 424.021869 51.84 
" clip-path="url(#pfc08d335e6)" style="fill: none; stroke: #ffffff; stroke-width: 0.8; stroke-linecap: round"/>
     </g>
     <g id="text_2">
      <!-- 2021-11 -->
      <g style="fill: #262626" transform="translate(388.064057 405.795625)scale(0.2 -0.2)">
       <use xlink:href="#ArialMT-32"/>
       <use xlink:href="#ArialMT-30" x="55.615234"/>
       <use xlink:href="#ArialMT-32" x="111.230469"/>
       <use xlink:href="#ArialMT-31" x="166.845703"/>
       <use xlink:href="#ArialMT-2d" x="222.460938"/>
       <use xlink:href="#ArialMT-31" x="255.761719"/>
       <use xlink:href="#ArialMT-31" x="304.001953"/>
      </g>
     </g>
    </g>
    <g id="xtick_3">
     <g id="line2d_3">
      <path d="M 570.084488 384.48 
L 570.084488 51.84 
" clip-path="url(#pfc08d335e6)" style="fill: none; stroke: #ffffff; stroke-width: 0.8; stroke-linecap: round"/>
     </g>
     <g id="text_3">
      <!-- 2022-01 -->
      <g style="fill: #262626" transform="translate(533.389176 405.795625)scale(0.2 -0.2)">
       <use xlink:href="#ArialMT-32"/>
       <use xlink:href="#ArialMT-30" x="55.615234"/>
       <use xlink:href="#ArialMT-32" x="111.230469"/>
       <use xlink:href="#ArialMT-32" x="166.845703"/>
       <use xlink:href="#ArialMT-2d" x="222.460938"/>
       <use xlink:href="#ArialMT-30" x="255.761719"/>
       <use xlink:href="#ArialMT-31" x="311.376953"/>
      </g>
     </g>
    </g>
    <g id="xtick_4">
     <g id="line2d_4">
      <path d="M 711.358169 384.48 
L 711.358169 51.84 
" clip-path="url(#pfc08d335e6)" style="fill: none; stroke: #ffffff; stroke-width: 0.8; stroke-linecap: round"/>
     </g>
     <g id="text_4">
      <!-- 2022-03 -->
      <g style="fill: #262626" transform="translate(674.662857 405.795625)scale(0.2 -0.2)">
       <defs>
        <path id="ArialMT-33" d="M 269 1209 
L 831 1284 
Q 928 806 1161 595 
Q 1394 384 1728 384 
Q 2125 384 2398 659 
Q 2672 934 2672 1341 
Q 2672 1728 2419 1979 
Q 2166 2231 1775 2231 
Q 1616 2231 1378 2169 
L 1441 2663 
Q 1497 2656 1531 2656 
Q 1891 2656 2178 2843 
Q 2466 3031 2466 3422 
Q 2466 3731 2256 3934 
Q 2047 4138 1716 4138 
Q 1388 4138 1169 3931 
Q 950 3725 888 3313 
L 325 3413 
Q 428 3978 793 4289 
Q 1159 4600 1703 4600 
Q 2078 4600 2393 4439 
Q 2709 4278 2876 4000 
Q 3044 3722 3044 3409 
Q 3044 3113 2884 2869 
Q 2725 2625 2413 2481 
Q 2819 2388 3044 2092 
Q 3269 1797 3269 1353 
Q 3269 753 2831 336 
Q 2394 -81 1725 -81 
Q 1122 -81 723 278 
Q 325 638 269 1209 
z
" transform="scale(0.015625)"/>
       </defs>
       <use xlink:href="#ArialMT-32"/>
       <use xlink:href="#ArialMT-30" x="55.615234"/>
       <use xlink:href="#ArialMT-32" x="111.230469"/>
       <use xlink:href="#ArialMT-32" x="166.845703"/>
       <use xlink:href="#ArialMT-2d" x="222.460938"/>
       <use xlink:href="#ArialMT-30" x="255.761719"/>
       <use xlink:href="#ArialMT-33" x="311.376953"/>
      </g>
     </g>
    </g>
    <g id="xtick_5">
     <g id="line2d_5">
      <path d="M 857.420788 384.48 
L 857.420788 51.84 
" clip-path="url(#pfc08d335e6)" style="fill: none; stroke: #ffffff; stroke-width: 0.8; stroke-linecap: round"/>
     </g>
     <g id="text_5">
      <!-- 2022-05 -->
      <g style="fill: #262626" transform="translate(820.725476 405.795625)scale(0.2 -0.2)">
       <defs>
        <path id="ArialMT-35" d="M 266 1200 
L 856 1250 
Q 922 819 1161 601 
Q 1400 384 1738 384 
Q 2144 384 2425 690 
Q 2706 997 2706 1503 
Q 2706 1984 2436 2262 
Q 2166 2541 1728 2541 
Q 1456 2541 1237 2417 
Q 1019 2294 894 2097 
L 366 2166 
L 809 4519 
L 3088 4519 
L 3088 3981 
L 1259 3981 
L 1013 2750 
Q 1425 3038 1878 3038 
Q 2478 3038 2890 2622 
Q 3303 2206 3303 1553 
Q 3303 931 2941 478 
Q 2500 -78 1738 -78 
Q 1113 -78 717 272 
Q 322 622 266 1200 
z
" transform="scale(0.015625)"/>
       </defs>
       <use xlink:href="#ArialMT-32"/>
       <use xlink:href="#ArialMT-30" x="55.615234"/>
       <use xlink:href="#ArialMT-32" x="111.230469"/>
       <use xlink:href="#ArialMT-32" x="166.845703"/>
       <use xlink:href="#ArialMT-2d" x="222.460938"/>
       <use xlink:href="#ArialMT-30" x="255.761719"/>
       <use xlink:href="#ArialMT-35" x="311.376953"/>
      </g>
     </g>
    </g>
    <g id="xtick_6">
     <g id="line2d_6">
      <path d="M 1003.483408 384.48 
L 1003.483408 51.84 
" clip-path="url(#pfc08d335e6)" style="fill: none; stroke: #ffffff; stroke-width: 0.8; stroke-linecap: round"/>
     </g>
     <g id="text_6">
      <!-- 2022-07 -->
      <g style="fill: #262626" transform="translate(966.788095 405.795625)scale(0.2 -0.2)">
       <defs>
        <path id="ArialMT-37" d="M 303 3981 
L 303 4522 
L 3269 4522 
L 3269 4084 
Q 2831 3619 2401 2847 
Q 1972 2075 1738 1259 
Q 1569 684 1522 0 
L 944 0 
Q 953 541 1156 1306 
Q 1359 2072 1739 2783 
Q 2119 3494 2547 3981 
L 303 3981 
z
" transform="scale(0.015625)"/>
       </defs>
       <use xlink:href="#ArialMT-32"/>
       <use xlink:href="#ArialMT-30" x="55.615234"/>
       <use xlink:href="#ArialMT-32" x="111.230469"/>
       <use xlink:href="#ArialMT-32" x="166.845703"/>
       <use xlink:href="#ArialMT-2d" x="222.460938"/>
       <use xlink:href="#ArialMT-30" x="255.761719"/>
       <use xlink:href="#ArialMT-37" x="311.376953"/>
      </g>
     </g>
    </g>
    <g id="xtick_7">
     <g id="line2d_7">
      <path d="M 1151.940496 384.48 
L 1151.940496 51.84 
" clip-path="url(#pfc08d335e6)" style="fill: none; stroke: #ffffff; stroke-width: 0.8; stroke-linecap: round"/>
     </g>
     <g id="text_7">
      <!-- 2022-09 -->
      <g style="fill: #262626" transform="translate(1115.245183 405.795625)scale(0.2 -0.2)">
       <use xlink:href="#ArialMT-32"/>
       <use xlink:href="#ArialMT-30" x="55.615234"/>
       <use xlink:href="#ArialMT-32" x="111.230469"/>
       <use xlink:href="#ArialMT-32" x="166.845703"/>
       <use xlink:href="#ArialMT-2d" x="222.460938"/>
       <use xlink:href="#ArialMT-30" x="255.761719"/>
       <use xlink:href="#ArialMT-39" x="311.376953"/>
      </g>
     </g>
    </g>
    <g id="xtick_8">
     <g id="line2d_8">
      <path d="M 1298.003115 384.48 
L 1298.003115 51.84 
" clip-path="url(#pfc08d335e6)" style="fill: none; stroke: #ffffff; stroke-width: 0.8; stroke-linecap: round"/>
     </g>
     <g id="text_8">
      <!-- 2022-11 -->
      <g style="fill: #262626" transform="translate(1262.045303 405.795625)scale(0.2 -0.2)">
       <use xlink:href="#ArialMT-32"/>
       <use xlink:href="#ArialMT-30" x="55.615234"/>
       <use xlink:href="#ArialMT-32" x="111.230469"/>
       <use xlink:href="#ArialMT-32" x="166.845703"/>
       <use xlink:href="#ArialMT-2d" x="222.460938"/>
       <use xlink:href="#ArialMT-31" x="255.761719"/>
       <use xlink:href="#ArialMT-31" x="304.001953"/>
      </g>
     </g>
    </g>
    <g id="xtick_9">
     <g id="line2d_9">
      <path d="M 1444.065734 384.48 
L 1444.065734 51.84 
" clip-path="url(#pfc08d335e6)" style="fill: none; stroke: #ffffff; stroke-width: 0.8; stroke-linecap: round"/>
     </g>
     <g id="text_9">
      <!-- 2023-01 -->
      <g style="fill: #262626" transform="translate(1407.370422 405.795625)scale(0.2 -0.2)">
       <use xlink:href="#ArialMT-32"/>
       <use xlink:href="#ArialMT-30" x="55.615234"/>
       <use xlink:href="#ArialMT-32" x="111.230469"/>
       <use xlink:href="#ArialMT-33" x="166.845703"/>
       <use xlink:href="#ArialMT-2d" x="222.460938"/>
       <use xlink:href="#ArialMT-30" x="255.761719"/>
       <use xlink:href="#ArialMT-31" x="311.376953"/>
      </g>
     </g>
    </g>
    <g id="xtick_10">
     <g id="line2d_10">
      <path d="M 1585.339415 384.48 
L 1585.339415 51.84 
" clip-path="url(#pfc08d335e6)" style="fill: none; stroke: #ffffff; stroke-width: 0.8; stroke-linecap: round"/>
     </g>
     <g id="text_10">
      <!-- 2023-03 -->
      <g style="fill: #262626" transform="translate(1548.644103 405.795625)scale(0.2 -0.2)">
       <use xlink:href="#ArialMT-32"/>
       <use xlink:href="#ArialMT-30" x="55.615234"/>
       <use xlink:href="#ArialMT-32" x="111.230469"/>
       <use xlink:href="#ArialMT-33" x="166.845703"/>
       <use xlink:href="#ArialMT-2d" x="222.460938"/>
       <use xlink:href="#ArialMT-30" x="255.761719"/>
       <use xlink:href="#ArialMT-33" x="311.376953"/>
      </g>
     </g>
    </g>
    <g id="xtick_11">
     <g id="line2d_11">
      <path d="M 1731.402034 384.48 
L 1731.402034 51.84 
" clip-path="url(#pfc08d335e6)" style="fill: none; stroke: #ffffff; stroke-width: 0.8; stroke-linecap: round"/>
     </g>
     <g id="text_11">
      <!-- 2023-05 -->
      <g style="fill: #262626" transform="translate(1694.706722 405.795625)scale(0.2 -0.2)">
       <use xlink:href="#ArialMT-32"/>
       <use xlink:href="#ArialMT-30" x="55.615234"/>
       <use xlink:href="#ArialMT-32" x="111.230469"/>
       <use xlink:href="#ArialMT-33" x="166.845703"/>
       <use xlink:href="#ArialMT-2d" x="222.460938"/>
       <use xlink:href="#ArialMT-30" x="255.761719"/>
       <use xlink:href="#ArialMT-35" x="311.376953"/>
      </g>
     </g>
    </g>
   </g>
   <g id="matplotlib.axis_2">
    <g id="ytick_1">
     <g id="line2d_12">
      <path d="M 243 371.336471 
L 1749.6 371.336471 
" clip-path="url(#pfc08d335e6)" style="fill: none; stroke: #ffffff; stroke-width: 0.8; stroke-linecap: round"/>
     </g>
     <g id="text_12">
      <!-- 0 -->
      <g style="fill: #262626" transform="translate(224.878125 378.494283)scale(0.2 -0.2)">
       <use xlink:href="#ArialMT-30"/>
      </g>
     </g>
    </g>
    <g id="ytick_2">
     <g id="line2d_13">
      <path d="M 243 321.924706 
L 1749.6 321.924706 
" clip-path="url(#pfc08d335e6)" style="fill: none; stroke: #ffffff; stroke-width: 0.8; stroke-linecap: round"/>
     </g>
     <g id="text_13">
      <!-- 25 -->
      <g style="fill: #262626" transform="translate(213.75625 329.082518)scale(0.2 -0.2)">
       <use xlink:href="#ArialMT-32"/>
       <use xlink:href="#ArialMT-35" x="55.615234"/>
      </g>
     </g>
    </g>
    <g id="ytick_3">
     <g id="line2d_14">
      <path d="M 243 272.512941 
L 1749.6 272.512941 
" clip-path="url(#pfc08d335e6)" style="fill: none; stroke: #ffffff; stroke-width: 0.8; stroke-linecap: round"/>
     </g>
     <g id="text_14">
      <!-- 50 -->
      <g style="fill: #262626" transform="translate(213.75625 279.670754)scale(0.2 -0.2)">
       <use xlink:href="#ArialMT-35"/>
       <use xlink:href="#ArialMT-30" x="55.615234"/>
      </g>
     </g>
    </g>
    <g id="ytick_4">
     <g id="line2d_15">
      <path d="M 243 223.101176 
L 1749.6 223.101176 
" clip-path="url(#pfc08d335e6)" style="fill: none; stroke: #ffffff; stroke-width: 0.8; stroke-linecap: round"/>
     </g>
     <g id="text_15">
      <!-- 75 -->
      <g style="fill: #262626" transform="translate(213.75625 230.258989)scale(0.2 -0.2)">
       <use xlink:href="#ArialMT-37"/>
       <use xlink:href="#ArialMT-35" x="55.615234"/>
      </g>
     </g>
    </g>
    <g id="ytick_5">
     <g id="line2d_16">
      <path d="M 243 173.689412 
L 1749.6 173.689412 
" clip-path="url(#pfc08d335e6)" style="fill: none; stroke: #ffffff; stroke-width: 0.8; stroke-linecap: round"/>
     </g>
     <g id="text_16">
      <!-- 100 -->
      <g style="fill: #262626" transform="translate(202.634375 180.847224)scale(0.2 -0.2)">
       <use xlink:href="#ArialMT-31"/>
       <use xlink:href="#ArialMT-30" x="55.615234"/>
       <use xlink:href="#ArialMT-30" x="111.230469"/>
      </g>
     </g>
    </g>
    <g id="ytick_6">
     <g id="line2d_17">
      <path d="M 243 124.277647 
L 1749.6 124.277647 
" clip-path="url(#pfc08d335e6)" style="fill: none; stroke: #ffffff; stroke-width: 0.8; stroke-linecap: round"/>
     </g>
     <g id="text_17">
      <!-- 125 -->
      <g style="fill: #262626" transform="translate(202.634375 131.43546)scale(0.2 -0.2)">
       <use xlink:href="#ArialMT-31"/>
       <use xlink:href="#ArialMT-32" x="55.615234"/>
       <use xlink:href="#ArialMT-35" x="111.230469"/>
      </g>
     </g>
    </g>
    <g id="ytick_7">
     <g id="line2d_18">
      <path d="M 243 74.865882 
L 1749.6 74.865882 
" clip-path="url(#pfc08d335e6)" style="fill: none; stroke: #ffffff; stroke-width: 0.8; stroke-linecap: round"/>
     </g>
     <g id="text_18">
      <!-- 150 -->
      <g style="fill: #262626" transform="translate(202.634375 82.023695)scale(0.2 -0.2)">
       <use xlink:href="#ArialMT-31"/>
       <use xlink:href="#ArialMT-35" x="55.615234"/>
       <use xlink:href="#ArialMT-30" x="111.230469"/>
      </g>
     </g>
    </g>
   </g>
   <g id="line2d_19">
    <path d="M 311.481818 300.183529 
L 313.876287 347.618824 
L 316.270757 355.524706 
L 318.665226 343.665882 
L 321.059695 365.407059 
L 323.454164 300.183529 
L 325.848633 319.948235 
L 328.243102 351.571765 
L 330.637572 349.595294 
L 333.032041 329.830588 
L 335.42651 359.477647 
L 337.820979 319.948235 
L 340.215448 296.230588 
L 342.609917 351.571765 
L 345.004387 357.501176 
L 347.398856 349.595294 
L 349.793325 355.524706 
L 354.582263 357.501176 
L 356.976732 365.407059 
L 359.371202 353.548235 
L 361.765671 361.454118 
L 364.16014 341.689412 
L 366.554609 355.524706 
L 368.949078 355.524706 
L 371.343547 325.877647 
L 373.738017 363.430588 
L 376.132486 351.571765 
L 378.526955 349.595294 
L 380.921424 359.477647 
L 383.315893 244.842353 
L 385.710362 367.383529 
L 388.104832 365.407059 
L 390.499301 357.501176 
L 392.89377 357.501176 
L 395.288239 327.854118 
L 397.682708 367.383529 
L 400.077177 333.783529 
L 402.471647 335.76 
L 404.866116 369.36 
L 407.260585 365.407059 
L 409.655054 306.112941 
L 412.049523 284.371765 
L 414.443992 223.101176 
L 416.838462 225.077647 
L 419.232931 347.618824 
L 421.6274 367.383529 
L 424.021869 365.407059 
L 426.416338 355.524706 
L 428.810807 284.371765 
L 431.205277 335.76 
L 435.994215 367.383529 
L 438.388684 369.36 
L 440.783153 171.712941 
L 443.177622 335.76 
L 445.572092 300.183529 
L 447.966561 294.254118 
L 450.36103 359.477647 
L 452.755499 369.36 
L 457.544437 329.830588 
L 459.938907 319.948235 
L 462.333376 319.948235 
L 464.727845 120.324706 
L 467.122314 248.795294 
L 469.516783 323.901176 
L 471.911252 363.430588 
L 474.305722 284.371765 
L 476.700191 369.36 
L 479.09466 363.430588 
L 481.489129 349.595294 
L 483.883598 345.642353 
L 486.278067 347.618824 
L 488.672537 351.571765 
L 491.067006 302.16 
L 493.461475 345.642353 
L 495.855944 286.348235 
L 498.250413 361.454118 
L 500.644882 280.418824 
L 503.039352 308.089412 
L 505.433821 319.948235 
L 507.82829 349.595294 
L 515.011697 250.771765 
L 517.406167 369.36 
L 519.800636 365.407059 
L 522.195105 327.854118 
L 524.589574 329.830588 
L 526.984043 361.454118 
L 529.378512 286.348235 
L 531.772982 365.407059 
L 536.56192 369.36 
L 538.956389 288.324706 
L 541.350858 349.595294 
L 543.745327 355.524706 
L 546.139797 292.277647 
L 548.534266 367.383529 
L 550.928735 268.56 
L 555.717673 365.407059 
L 558.112142 298.207059 
L 560.506612 300.183529 
L 562.901081 310.065882 
L 565.29555 238.912941 
L 567.690019 341.689412 
L 570.084488 308.089412 
L 572.478957 355.524706 
L 574.873427 345.642353 
L 577.267896 317.971765 
L 579.662365 339.712941 
L 582.056834 369.36 
L 584.451303 315.995294 
L 586.845772 345.642353 
L 589.240242 365.407059 
L 591.634711 240.889412 
L 594.02918 242.865882 
L 596.423649 319.948235 
L 598.818118 361.454118 
L 610.790464 343.665882 
L 613.184933 321.924706 
L 615.579402 343.665882 
L 617.973872 369.36 
L 620.368341 347.618824 
L 627.551748 292.277647 
L 629.946217 355.524706 
L 632.340687 270.536471 
L 634.735156 213.218824 
L 637.129625 335.76 
L 641.918563 76.842353 
L 644.313032 266.583529 
L 646.707502 217.171765 
L 649.101971 201.36 
L 651.49644 211.242353 
L 653.890909 345.642353 
L 656.285378 361.454118 
L 658.679847 151.948235 
L 661.074317 252.748235 
L 663.468786 329.830588 
L 665.863255 355.524706 
L 668.257724 215.195294 
L 670.652193 339.712941 
L 675.441132 177.642353 
L 677.835601 315.995294 
L 680.23007 355.524706 
L 682.624539 355.524706 
L 685.019008 369.36 
L 687.413477 369.36 
L 689.807947 292.277647 
L 692.202416 357.501176 
L 694.596885 315.995294 
L 699.385823 321.924706 
L 701.780292 347.618824 
L 704.174762 359.477647 
L 711.358169 268.56 
L 713.752638 335.76 
L 716.147107 306.112941 
L 718.541577 310.065882 
L 720.936046 345.642353 
L 723.330515 369.36 
L 725.724984 351.571765 
L 728.119453 349.595294 
L 730.513922 292.277647 
L 732.908392 310.065882 
L 735.302861 343.665882 
L 742.486268 355.524706 
L 744.880737 369.36 
L 752.064145 367.383529 
L 759.247552 367.383529 
L 761.642022 298.207059 
L 764.036491 355.524706 
L 766.43096 341.689412 
L 768.825429 357.501176 
L 771.219898 363.430588 
L 773.614367 345.642353 
L 778.403306 351.571765 
L 780.797775 369.36 
L 792.770121 365.407059 
L 797.559059 365.407059 
L 799.953528 369.36 
L 804.742467 365.407059 
L 807.136936 369.36 
L 809.531405 294.254118 
L 811.925874 351.571765 
L 814.320343 302.16 
L 816.714812 365.407059 
L 819.109282 167.76 
L 821.503751 349.595294 
L 823.89822 325.877647 
L 826.292689 331.807059 
L 828.687158 211.242353 
L 831.081627 276.465882 
L 833.476097 363.430588 
L 835.870566 319.948235 
L 838.265035 359.477647 
L 840.659504 353.548235 
L 843.053973 357.501176 
L 845.448442 355.524706 
L 847.842912 258.677647 
L 850.237381 351.571765 
L 852.63185 369.36 
L 855.026319 369.36 
L 857.420788 323.901176 
L 859.815257 363.430588 
L 862.209727 308.089412 
L 864.604196 262.630588 
L 866.998665 171.712941 
L 871.787603 361.454118 
L 874.182072 367.383529 
L 876.576542 349.595294 
L 878.971011 270.536471 
L 881.36548 359.477647 
L 883.759949 353.548235 
L 886.154418 290.301176 
L 888.548887 357.501176 
L 890.943357 312.042353 
L 893.337826 213.218824 
L 895.732295 329.830588 
L 898.126764 300.183529 
L 900.521233 369.36 
L 902.915702 365.407059 
L 907.704641 290.301176 
L 910.09911 353.548235 
L 912.493579 349.595294 
L 914.888048 339.712941 
L 917.282517 335.76 
L 919.676987 351.571765 
L 922.071456 369.36 
L 924.465925 351.571765 
L 926.860394 234.96 
L 929.254863 280.418824 
L 931.649332 361.454118 
L 934.043802 355.524706 
L 936.438271 351.571765 
L 938.83274 363.430588 
L 941.227209 349.595294 
L 943.621678 361.454118 
L 946.016147 345.642353 
L 950.805086 353.548235 
L 953.199555 329.830588 
L 955.594024 343.665882 
L 960.382962 355.524706 
L 962.777432 329.830588 
L 965.171901 353.548235 
L 967.56637 331.807059 
L 969.960839 343.665882 
L 972.355308 306.112941 
L 974.749777 343.665882 
L 977.144247 219.148235 
L 979.538716 337.736471 
L 981.933185 345.642353 
L 984.327654 351.571765 
L 986.722123 236.936471 
L 989.116592 347.618824 
L 993.905531 329.830588 
L 996.3 355.524706 
L 998.694469 306.112941 
L 1001.088938 345.642353 
L 1003.483408 268.56 
L 1005.877877 319.948235 
L 1008.272346 343.665882 
L 1010.666815 359.477647 
L 1013.061284 365.407059 
L 1015.455753 333.783529 
L 1017.850223 363.430588 
L 1020.244692 357.501176 
L 1022.639161 353.548235 
L 1025.03363 317.971765 
L 1027.428099 361.454118 
L 1029.822568 319.948235 
L 1032.217038 300.183529 
L 1037.005976 361.454118 
L 1039.400445 363.430588 
L 1041.794914 345.642353 
L 1044.189383 361.454118 
L 1046.583853 365.407059 
L 1048.978322 337.736471 
L 1051.372791 365.407059 
L 1053.76726 359.477647 
L 1056.161729 367.383529 
L 1060.950668 319.948235 
L 1063.345137 369.36 
L 1068.134075 315.995294 
L 1072.923013 369.36 
L 1087.289828 369.36 
L 1094.473236 308.089412 
L 1099.262174 363.430588 
L 1106.445582 367.383529 
L 1108.840051 308.089412 
L 1113.628989 260.654118 
L 1116.023458 369.36 
L 1130.390273 369.36 
L 1132.784743 306.112941 
L 1139.96815 369.36 
L 1147.151558 361.454118 
L 1151.940496 367.383529 
L 1156.729434 369.36 
L 1161.518373 367.383529 
L 1163.912842 347.618824 
L 1166.307311 355.524706 
L 1168.70178 367.383529 
L 1171.096249 319.948235 
L 1173.490718 357.501176 
L 1175.885188 349.595294 
L 1178.279657 240.889412 
L 1180.674126 337.736471 
L 1183.068595 321.924706 
L 1185.463064 357.501176 
L 1187.857533 369.36 
L 1190.252003 365.407059 
L 1195.040941 359.477647 
L 1199.829879 359.477647 
L 1202.224348 347.618824 
L 1204.618818 357.501176 
L 1207.013287 369.36 
L 1209.407756 335.76 
L 1211.802225 349.595294 
L 1214.196694 353.548235 
L 1218.985633 66.96 
L 1221.380102 308.089412 
L 1223.774571 252.748235 
L 1226.16904 278.442353 
L 1228.563509 333.783529 
L 1230.957978 355.524706 
L 1233.352448 367.383529 
L 1235.746917 361.454118 
L 1238.141386 300.183529 
L 1240.535855 361.454118 
L 1242.930324 347.618824 
L 1245.324793 296.230588 
L 1247.719263 369.36 
L 1250.113732 369.36 
L 1252.508201 363.430588 
L 1254.90267 355.524706 
L 1257.297139 223.101176 
L 1259.691608 359.477647 
L 1262.086078 341.689412 
L 1264.480547 359.477647 
L 1266.875016 357.501176 
L 1269.269485 357.501176 
L 1278.847362 325.877647 
L 1281.241831 365.407059 
L 1283.6363 359.477647 
L 1286.030769 262.630588 
L 1288.425238 238.912941 
L 1290.819708 302.16 
L 1293.214177 345.642353 
L 1295.608646 306.112941 
L 1298.003115 369.36 
L 1300.397584 365.407059 
L 1302.792053 300.183529 
L 1307.580992 369.36 
L 1312.36993 302.16 
L 1314.764399 294.254118 
L 1317.158868 361.454118 
L 1319.553338 355.524706 
L 1321.947807 306.112941 
L 1326.736745 361.454118 
L 1329.131214 357.501176 
L 1331.525683 284.371765 
L 1333.920153 367.383529 
L 1336.314622 351.571765 
L 1338.709091 349.595294 
L 1341.10356 357.501176 
L 1345.892498 349.595294 
L 1348.286968 294.254118 
L 1350.681437 288.324706 
L 1353.075906 347.618824 
L 1355.470375 288.324706 
L 1357.864844 365.407059 
L 1362.653783 357.501176 
L 1365.048252 363.430588 
L 1367.442721 317.971765 
L 1369.83719 302.16 
L 1372.231659 343.665882 
L 1374.626128 300.183529 
L 1379.415067 355.524706 
L 1381.809536 355.524706 
L 1384.204005 359.477647 
L 1386.598474 298.207059 
L 1388.992943 227.054118 
L 1391.387413 369.36 
L 1393.781882 369.36 
L 1396.176351 229.030588 
L 1398.57082 365.407059 
L 1400.965289 323.901176 
L 1403.359758 296.230588 
L 1405.754228 312.042353 
L 1408.148697 329.830588 
L 1410.543166 355.524706 
L 1412.937635 298.207059 
L 1415.332104 331.807059 
L 1417.726573 355.524706 
L 1420.121043 367.383529 
L 1422.515512 359.477647 
L 1429.698919 357.501176 
L 1432.093388 300.183529 
L 1434.487858 367.383529 
L 1436.882327 296.230588 
L 1444.065734 365.407059 
L 1446.460203 363.430588 
L 1448.854673 355.524706 
L 1451.249142 359.477647 
L 1453.643611 369.36 
L 1458.432549 361.454118 
L 1463.221488 365.407059 
L 1468.010426 312.042353 
L 1472.799364 351.571765 
L 1475.193833 333.783529 
L 1477.588303 343.665882 
L 1479.982772 329.830588 
L 1489.560648 367.383529 
L 1508.716402 355.524706 
L 1511.110871 314.018824 
L 1513.50534 365.407059 
L 1515.899809 314.018824 
L 1518.294278 306.112941 
L 1520.688748 306.112941 
L 1523.083217 369.36 
L 1530.266624 361.454118 
L 1535.055563 367.383529 
L 1542.23897 369.36 
L 1544.633439 365.407059 
L 1547.027908 357.501176 
L 1549.422378 355.524706 
L 1551.816847 367.383529 
L 1556.605785 367.383529 
L 1559.000254 369.36 
L 1563.789193 310.065882 
L 1566.183662 353.548235 
L 1568.578131 369.36 
L 1570.9726 351.571765 
L 1573.367069 321.924706 
L 1578.156008 319.948235 
L 1580.550477 347.618824 
L 1582.944946 357.501176 
L 1585.339415 276.465882 
L 1587.733884 365.407059 
L 1590.128353 319.948235 
L 1592.522823 355.524706 
L 1594.917292 369.36 
L 1597.311761 357.501176 
L 1599.70623 365.407059 
L 1606.889638 359.477647 
L 1609.284107 365.407059 
L 1614.073045 365.407059 
L 1616.467514 355.524706 
L 1618.861983 347.618824 
L 1621.256453 347.618824 
L 1623.650922 369.36 
L 1626.045391 363.430588 
L 1630.834329 264.607059 
L 1633.228798 365.407059 
L 1635.623268 306.112941 
L 1638.017737 369.36 
L 1640.412206 363.430588 
L 1642.806675 369.36 
L 1647.595613 359.477647 
L 1649.990083 367.383529 
L 1652.384552 369.36 
L 1654.779021 369.36 
L 1657.17349 357.501176 
L 1661.962428 355.524706 
L 1664.356898 341.689412 
L 1666.751367 369.36 
L 1669.145836 357.501176 
L 1671.540305 363.430588 
L 1673.934774 353.548235 
L 1676.329243 351.571765 
L 1678.723713 361.454118 
L 1681.118182 306.112941 
L 1681.118182 306.112941 
" clip-path="url(#pfc08d335e6)" style="fill: none; stroke: #1f77b4; stroke-width: 1.5; stroke-linecap: round"/>
   </g>
   <g id="patch_3">
    <path d="M 243 384.48 
L 243 51.84 
" style="fill: none; stroke: #ffffff; stroke-width: 0.8; stroke-linejoin: miter; stroke-linecap: square"/>
   </g>
   <g id="patch_4">
    <path d="M 1749.6 384.48 
L 1749.6 51.84 
" style="fill: none; stroke: #ffffff; stroke-width: 0.8; stroke-linejoin: miter; stroke-linecap: square"/>
   </g>
   <g id="patch_5">
    <path d="M 243 384.48 
L 1749.6 384.48 
" style="fill: none; stroke: #ffffff; stroke-width: 0.8; stroke-linejoin: miter; stroke-linecap: square"/>
   </g>
   <g id="patch_6">
    <path d="M 243 51.84 
L 1749.6 51.84 
" style="fill: none; stroke: #ffffff; stroke-width: 0.8; stroke-linejoin: miter; stroke-linecap: square"/>
   </g>
   <g id="text_19">
    <!-- Messages sent per day over a time period -->
    <g style="fill: #262626" transform="translate(772.869375 45.84)scale(0.24 -0.24)">
     <defs>
      <path id="ArialMT-4d" d="M 475 0 
L 475 4581 
L 1388 4581 
L 2472 1338 
Q 2622 884 2691 659 
Q 2769 909 2934 1394 
L 4031 4581 
L 4847 4581 
L 4847 0 
L 4263 0 
L 4263 3834 
L 2931 0 
L 2384 0 
L 1059 3900 
L 1059 0 
L 475 0 
z
" transform="scale(0.015625)"/>
      <path id="ArialMT-65" d="M 2694 1069 
L 3275 997 
Q 3138 488 2766 206 
Q 2394 -75 1816 -75 
Q 1088 -75 661 373 
Q 234 822 234 1631 
Q 234 2469 665 2931 
Q 1097 3394 1784 3394 
Q 2450 3394 2872 2941 
Q 3294 2488 3294 1666 
Q 3294 1616 3291 1516 
L 816 1516 
Q 847 969 1125 678 
Q 1403 388 1819 388 
Q 2128 388 2347 550 
Q 2566 713 2694 1069 
z
M 847 1978 
L 2700 1978 
Q 2663 2397 2488 2606 
Q 2219 2931 1791 2931 
Q 1403 2931 1139 2672 
Q 875 2413 847 1978 
z
" transform="scale(0.015625)"/>
      <path id="ArialMT-73" d="M 197 991 
L 753 1078 
Q 800 744 1014 566 
Q 1228 388 1613 388 
Q 2000 388 2187 545 
Q 2375 703 2375 916 
Q 2375 1106 2209 1216 
Q 2094 1291 1634 1406 
Q 1016 1563 777 1677 
Q 538 1791 414 1992 
Q 291 2194 291 2438 
Q 291 2659 392 2848 
Q 494 3038 669 3163 
Q 800 3259 1026 3326 
Q 1253 3394 1513 3394 
Q 1903 3394 2198 3281 
Q 2494 3169 2634 2976 
Q 2775 2784 2828 2463 
L 2278 2388 
Q 2241 2644 2061 2787 
Q 1881 2931 1553 2931 
Q 1166 2931 1000 2803 
Q 834 2675 834 2503 
Q 834 2394 903 2306 
Q 972 2216 1119 2156 
Q 1203 2125 1616 2013 
Q 2213 1853 2448 1751 
Q 2684 1650 2818 1456 
Q 2953 1263 2953 975 
Q 2953 694 2789 445 
Q 2625 197 2315 61 
Q 2006 -75 1616 -75 
Q 969 -75 630 194 
Q 291 463 197 991 
z
" transform="scale(0.015625)"/>
      <path id="ArialMT-61" d="M 2588 409 
Q 2275 144 1986 34 
Q 1697 -75 1366 -75 
Q 819 -75 525 192 
Q 231 459 231 875 
Q 231 1119 342 1320 
Q 453 1522 633 1644 
Q 813 1766 1038 1828 
Q 1203 1872 1538 1913 
Q 2219 1994 2541 2106 
Q 2544 2222 2544 2253 
Q 2544 2597 2384 2738 
Q 2169 2928 1744 2928 
Q 1347 2928 1158 2789 
Q 969 2650 878 2297 
L 328 2372 
Q 403 2725 575 2942 
Q 747 3159 1072 3276 
Q 1397 3394 1825 3394 
Q 2250 3394 2515 3294 
Q 2781 3194 2906 3042 
Q 3031 2891 3081 2659 
Q 3109 2516 3109 2141 
L 3109 1391 
Q 3109 606 3145 398 
Q 3181 191 3288 0 
L 2700 0 
Q 2613 175 2588 409 
z
M 2541 1666 
Q 2234 1541 1622 1453 
Q 1275 1403 1131 1340 
Q 988 1278 909 1158 
Q 831 1038 831 891 
Q 831 666 1001 516 
Q 1172 366 1500 366 
Q 1825 366 2078 508 
Q 2331 650 2450 897 
Q 2541 1088 2541 1459 
L 2541 1666 
z
" transform="scale(0.015625)"/>
      <path id="ArialMT-67" d="M 319 -275 
L 866 -356 
Q 900 -609 1056 -725 
Q 1266 -881 1628 -881 
Q 2019 -881 2231 -725 
Q 2444 -569 2519 -288 
Q 2563 -116 2559 434 
Q 2191 0 1641 0 
Q 956 0 581 494 
Q 206 988 206 1678 
Q 206 2153 378 2554 
Q 550 2956 876 3175 
Q 1203 3394 1644 3394 
Q 2231 3394 2613 2919 
L 2613 3319 
L 3131 3319 
L 3131 450 
Q 3131 -325 2973 -648 
Q 2816 -972 2473 -1159 
Q 2131 -1347 1631 -1347 
Q 1038 -1347 672 -1080 
Q 306 -813 319 -275 
z
M 784 1719 
Q 784 1066 1043 766 
Q 1303 466 1694 466 
Q 2081 466 2343 764 
Q 2606 1063 2606 1700 
Q 2606 2309 2336 2618 
Q 2066 2928 1684 2928 
Q 1309 2928 1046 2623 
Q 784 2319 784 1719 
z
" transform="scale(0.015625)"/>
      <path id="ArialMT-20" transform="scale(0.015625)"/>
      <path id="ArialMT-6e" d="M 422 0 
L 422 3319 
L 928 3319 
L 928 2847 
Q 1294 3394 1984 3394 
Q 2284 3394 2536 3286 
Q 2788 3178 2913 3003 
Q 3038 2828 3088 2588 
Q 3119 2431 3119 2041 
L 3119 0 
L 2556 0 
L 2556 2019 
Q 2556 2363 2490 2533 
Q 2425 2703 2258 2804 
Q 2091 2906 1866 2906 
Q 1506 2906 1245 2678 
Q 984 2450 984 1813 
L 984 0 
L 422 0 
z
" transform="scale(0.015625)"/>
      <path id="ArialMT-74" d="M 1650 503 
L 1731 6 
Q 1494 -44 1306 -44 
Q 1000 -44 831 53 
Q 663 150 594 308 
Q 525 466 525 972 
L 525 2881 
L 113 2881 
L 113 3319 
L 525 3319 
L 525 4141 
L 1084 4478 
L 1084 3319 
L 1650 3319 
L 1650 2881 
L 1084 2881 
L 1084 941 
Q 1084 700 1114 631 
Q 1144 563 1211 522 
Q 1278 481 1403 481 
Q 1497 481 1650 503 
z
" transform="scale(0.015625)"/>
      <path id="ArialMT-70" d="M 422 -1272 
L 422 3319 
L 934 3319 
L 934 2888 
Q 1116 3141 1344 3267 
Q 1572 3394 1897 3394 
Q 2322 3394 2647 3175 
Q 2972 2956 3137 2557 
Q 3303 2159 3303 1684 
Q 3303 1175 3120 767 
Q 2938 359 2589 142 
Q 2241 -75 1856 -75 
Q 1575 -75 1351 44 
Q 1128 163 984 344 
L 984 -1272 
L 422 -1272 
z
M 931 1641 
Q 931 1000 1190 694 
Q 1450 388 1819 388 
Q 2194 388 2461 705 
Q 2728 1022 2728 1688 
Q 2728 2322 2467 2637 
Q 2206 2953 1844 2953 
Q 1484 2953 1207 2617 
Q 931 2281 931 1641 
z
" transform="scale(0.015625)"/>
      <path id="ArialMT-72" d="M 416 0 
L 416 3319 
L 922 3319 
L 922 2816 
Q 1116 3169 1280 3281 
Q 1444 3394 1641 3394 
Q 1925 3394 2219 3213 
L 2025 2691 
Q 1819 2813 1613 2813 
Q 1428 2813 1281 2702 
Q 1134 2591 1072 2394 
Q 978 2094 978 1738 
L 978 0 
L 416 0 
z
" transform="scale(0.015625)"/>
      <path id="ArialMT-64" d="M 2575 0 
L 2575 419 
Q 2259 -75 1647 -75 
Q 1250 -75 917 144 
Q 584 363 401 755 
Q 219 1147 219 1656 
Q 219 2153 384 2558 
Q 550 2963 881 3178 
Q 1213 3394 1622 3394 
Q 1922 3394 2156 3267 
Q 2391 3141 2538 2938 
L 2538 4581 
L 3097 4581 
L 3097 0 
L 2575 0 
z
M 797 1656 
Q 797 1019 1065 703 
Q 1334 388 1700 388 
Q 2069 388 2326 689 
Q 2584 991 2584 1609 
Q 2584 2291 2321 2609 
Q 2059 2928 1675 2928 
Q 1300 2928 1048 2622 
Q 797 2316 797 1656 
z
" transform="scale(0.015625)"/>
      <path id="ArialMT-79" d="M 397 -1278 
L 334 -750 
Q 519 -800 656 -800 
Q 844 -800 956 -737 
Q 1069 -675 1141 -563 
Q 1194 -478 1313 -144 
Q 1328 -97 1363 -6 
L 103 3319 
L 709 3319 
L 1400 1397 
Q 1534 1031 1641 628 
Q 1738 1016 1872 1384 
L 2581 3319 
L 3144 3319 
L 1881 -56 
Q 1678 -603 1566 -809 
Q 1416 -1088 1222 -1217 
Q 1028 -1347 759 -1347 
Q 597 -1347 397 -1278 
z
" transform="scale(0.015625)"/>
      <path id="ArialMT-6f" d="M 213 1659 
Q 213 2581 725 3025 
Q 1153 3394 1769 3394 
Q 2453 3394 2887 2945 
Q 3322 2497 3322 1706 
Q 3322 1066 3130 698 
Q 2938 331 2570 128 
Q 2203 -75 1769 -75 
Q 1072 -75 642 372 
Q 213 819 213 1659 
z
M 791 1659 
Q 791 1022 1069 705 
Q 1347 388 1769 388 
Q 2188 388 2466 706 
Q 2744 1025 2744 1678 
Q 2744 2294 2464 2611 
Q 2184 2928 1769 2928 
Q 1347 2928 1069 2612 
Q 791 2297 791 1659 
z
" transform="scale(0.015625)"/>
      <path id="ArialMT-76" d="M 1344 0 
L 81 3319 
L 675 3319 
L 1388 1331 
Q 1503 1009 1600 663 
Q 1675 925 1809 1294 
L 2547 3319 
L 3125 3319 
L 1869 0 
L 1344 0 
z
" transform="scale(0.015625)"/>
      <path id="ArialMT-69" d="M 425 3934 
L 425 4581 
L 988 4581 
L 988 3934 
L 425 3934 
z
M 425 0 
L 425 3319 
L 988 3319 
L 988 0 
L 425 0 
z
" transform="scale(0.015625)"/>
      <path id="ArialMT-6d" d="M 422 0 
L 422 3319 
L 925 3319 
L 925 2853 
Q 1081 3097 1340 3245 
Q 1600 3394 1931 3394 
Q 2300 3394 2536 3241 
Q 2772 3088 2869 2813 
Q 3263 3394 3894 3394 
Q 4388 3394 4653 3120 
Q 4919 2847 4919 2278 
L 4919 0 
L 4359 0 
L 4359 2091 
Q 4359 2428 4304 2576 
Q 4250 2725 4106 2815 
Q 3963 2906 3769 2906 
Q 3419 2906 3187 2673 
Q 2956 2441 2956 1928 
L 2956 0 
L 2394 0 
L 2394 2156 
Q 2394 2531 2256 2718 
Q 2119 2906 1806 2906 
Q 1569 2906 1367 2781 
Q 1166 2656 1075 2415 
Q 984 2175 984 1722 
L 984 0 
L 422 0 
z
" transform="scale(0.015625)"/>
     </defs>
     <use xlink:href="#ArialMT-4d"/>
     <use xlink:href="#ArialMT-65" x="83.300781"/>
     <use xlink:href="#ArialMT-73" x="138.916016"/>
     <use xlink:href="#ArialMT-73" x="188.916016"/>
     <use xlink:href="#ArialMT-61" x="238.916016"/>
     <use xlink:href="#ArialMT-67" x="294.53125"/>
     <use xlink:href="#ArialMT-65" x="350.146484"/>
     <use xlink:href="#ArialMT-73" x="405.761719"/>
     <use xlink:href="#ArialMT-20" x="455.761719"/>
     <use xlink:href="#ArialMT-73" x="483.544922"/>
     <use xlink:href="#ArialMT-65" x="533.544922"/>
     <use xlink:href="#ArialMT-6e" x="589.160156"/>
     <use xlink:href="#ArialMT-74" x="644.775391"/>
     <use xlink:href="#ArialMT-20" x="672.558594"/>
     <use xlink:href="#ArialMT-70" x="700.341797"/>
     <use xlink:href="#ArialMT-65" x="755.957031"/>
     <use xlink:href="#ArialMT-72" x="811.572266"/>
     <use xlink:href="#ArialMT-20" x="844.873047"/>
     <use xlink:href="#ArialMT-64" x="872.65625"/>
     <use xlink:href="#ArialMT-61" x="928.271484"/>
     <use xlink:href="#ArialMT-79" x="983.886719"/>
     <use xlink:href="#ArialMT-20" x="1033.886719"/>
     <use xlink:href="#ArialMT-6f" x="1061.669922"/>
     <use xlink:href="#ArialMT-76" x="1117.285156"/>
     <use xlink:href="#ArialMT-65" x="1167.285156"/>
     <use xlink:href="#ArialMT-72" x="1222.900391"/>
     <use xlink:href="#ArialMT-20" x="1256.201172"/>
     <use xlink:href="#ArialMT-61" x="1283.984375"/>
     <use xlink:href="#ArialMT-20" x="1339.599609"/>
     <use xlink:href="#ArialMT-74" x="1367.382812"/>
     <use xlink:href="#ArialMT-69" x="1395.166016"/>
     <use xlink:href="#ArialMT-6d" x="1417.382812"/>
     <use xlink:href="#ArialMT-65" x="1500.683594"/>
     <use xlink:href="#ArialMT-20" x="1556.298828"/>
     <use xlink:href="#ArialMT-70" x="1584.082031"/>
     <use xlink:href="#ArialMT-65" x="1639.697266"/>
     <use xlink:href="#ArialMT-72" x="1695.3125"/>
     <use xlink:href="#ArialMT-69" x="1728.613281"/>
     <use xlink:href="#ArialMT-6f" x="1750.830078"/>
     <use xlink:href="#ArialMT-64" x="1806.445312"/>
    </g>
   </g>
  </g>
 </g>
 <defs>
  <clipPath id="pfc08d335e6">
   <rect x="243" y="51.84" width="1506.6" height="332.64"/>
  </clipPath>
 </defs>
</svg>
